<?xml version="1.0" encoding="utf-8"?>
<!-- Generator: Adobe Illustrator 16.0.4, SVG Export Plug-In . SVG Version: 6.00 Build 0)  -->
<!DOCTYPE svg PUBLIC "-//W3C//DTD SVG 1.1//EN" "http://www.w3.org/Graphics/SVG/1.1/DTD/svg11.dtd">
<svg version="1.1" id="black" xmlns="http://www.w3.org/2000/svg" xmlns:xlink="http://www.w3.org/1999/xlink" x="0px" y="0px"
	 width="48px" height="48px" viewBox="0 0 48 48" enable-background="new 0 0 48 48" xml:space="preserve">
<path fill="#231F20" d="M33,18.233V13c0-0.552-0.448-1-1-1h-1.948c-0.552,0-1,0.448-1,1v1.564C27.053,13.035,25.113,12,24,12
	c-3,0-12,7.5-12,12c0,0.994,1.174,1.768,3,2.323V33c0,1.105,0.896,2,2,2H31c1.105,0,2-0.896,2-2v-6.676c1.826-0.555,3-1.329,3-2.323
	C36,22.315,34.737,20.208,33,18.233z M23,30.5c0,0.275-0.225,0.5-0.5,0.5h-2c-0.275,0-0.5-0.225-0.5-0.5v-2
	c0-0.275,0.225-0.5,0.5-0.5h2c0.275,0,0.5,0.225,0.5,0.5V30.5z M23,25.5c0,0.275-0.225,0.5-0.5,0.5h-2c-0.275,0-0.5-0.225-0.5-0.5
	v-2c0-0.275,0.225-0.5,0.5-0.5h2c0.275,0,0.5,0.225,0.5,0.5V25.5z M28,30.5c0,0.275-0.225,0.5-0.5,0.5h-2
	c-0.275,0-0.5-0.225-0.5-0.5v-2c0-0.275,0.225-0.5,0.5-0.5h2c0.275,0,0.5,0.225,0.5,0.5V30.5z M28,25.5c0,0.275-0.225,0.5-0.5,0.5
	h-2c-0.275,0-0.5-0.225-0.5-0.5v-2c0-0.275,0.225-0.5,0.5-0.5h2c0.275,0,0.5,0.225,0.5,0.5V25.5z"/>
</svg>
