<?xml version="1.0" encoding="utf-8"?>
<!-- Generator: Adobe Illustrator 16.0.4, SVG Export Plug-In . SVG Version: 6.00 Build 0)  -->
<!DOCTYPE svg PUBLIC "-//W3C//DTD SVG 1.1//EN" "http://www.w3.org/Graphics/SVG/1.1/DTD/svg11.dtd">
<svg version="1.1" xmlns="http://www.w3.org/2000/svg" xmlns:xlink="http://www.w3.org/1999/xlink" x="0px" y="0px" width="48px"
	 height="48px" viewBox="0 0 48 48" enable-background="new 0 0 48 48" xml:space="preserve">
<g id="Layer_1" display="none">
	<circle display="inline" fill="#589DA8" cx="24" cy="24" r="24"/>
</g>
<g id="white" display="none">
	<path display="inline" fill="#FFFFFF" d="M15.943,28.671c-0.417-0.05-0.78-0.307-0.968-0.683c-0.188-0.375-0.174-0.821,0.037-1.184
		c1.839-3.167,4.751-7.128,8.732-10.936c0.473-0.453,1.216-0.463,1.701-0.023c4.174,3.785,7.247,7.77,9.208,10.936
		c0.225,0.363,0.249,0.815,0.063,1.2s-0.554,0.647-0.978,0.698C27.833,29.385,21.85,29.383,15.943,28.671z"/>
</g>
<g id="black">
	<path fill="#231F20" d="M15.943,28.671c-0.417-0.05-0.78-0.307-0.968-0.683c-0.188-0.375-0.174-0.821,0.037-1.184
		c1.839-3.167,4.751-7.128,8.732-10.936c0.473-0.453,1.216-0.463,1.701-0.023c4.174,3.785,7.247,7.77,9.208,10.936
		c0.225,0.363,0.249,0.815,0.063,1.2s-0.554,0.647-0.978,0.698C27.833,29.385,21.85,29.383,15.943,28.671z"/>
</g>
</svg>
